<svg xmlns="http://www.w3.org/2000/svg" width="170" height="36" fill="none"><path d="M20.359 27.325c.369.225.778.389 1.188.491.41.082.84.123 1.27.062.43-.062.84-.185 1.208-.471a.292.292 0 00.123-.246.294.294 0 00-.307-.267h-.062c-.307.02-.675.02-1.003 0a8.469 8.469 0 01-1.004-.143 5.21 5.21 0 01-.962-.287 7.527 7.527 0 01-.922-.43l-.062-.04a.35.35 0 00-.286 0 .275.275 0 00-.103.388 2.9 2.9 0 00.922.943zm9.155-5.981l-.04.02c-.677.349-1.373.41-2.008.247-.635-.123-1.229-.471-1.7-1.086l-.02-.02a.392.392 0 00-.41-.144.383.383 0 00-.287.471c.123.553.43 1.086.901 1.454a2.76 2.76 0 001.25.615c.47.102.942.082 1.392-.041a2.527 2.527 0 001.414-.942.391.391 0 00-.062-.553.523.523 0 00-.43-.02zm-7.925 2.536c.102.083.225.083.348.021a.705.705 0 01.491-.061c.144.02.308.123.43.266a.299.299 0 00.185.123c.04 0 .102.02.143 0 .082-.02.164-.062.205-.143a.352.352 0 00.041-.246 1.033 1.033 0 00-.348-.553 1.464 1.464 0 00-.471-.246c-.185-.041-.369-.041-.512.02-.205.062-.41.185-.553.37-.062.06-.082.142-.062.245-.02.061.02.143.103.205zm-.307-3.786a.391.391 0 00-.062-.553c-.123-.102-.287-.102-.43-.04l-.041.02c-.676.348-1.372.41-2.007.246-.635-.123-1.23-.471-1.7-1.086l-.02-.02a.392.392 0 00-.41-.144.383.383 0 00-.287.471c.123.553.43 1.086.901 1.454.348.308.778.513 1.25.615.47.102.942.082 1.392-.041.553-.123 1.065-.471 1.414-.922zm12.492 3.092a.502.502 0 01-.369-.43.54.54 0 01.267-.532l2.13-1.209-1.434-.614a.552.552 0 01-.287-.697.552.552 0 01.697-.286l2.437 1.024a.573.573 0 01.328.45c.02.185-.103.39-.267.492l-1.904 1.065 1.208.287c.287.061.45.348.39.635-.062.287-.349.45-.636.389l-2.519-.615c-.02.062-.02.041-.04.041zm4.056-8.356a.568.568 0 01-.307.266l-3.359 1.556a.72.72 0 01-.778-.123c-.205-.204-.287-.512-.164-.778l1.352-3.338-2.253.634c-.369.103-.758-.122-.881-.491-.102-.369.123-.758.492-.88l3.645-1.025a.677.677 0 01.717.205.698.698 0 01.123.737l-1.208 3.011 1.74-.799a.72.72 0 01.943.348.785.785 0 01-.062.676z" fill="#03BFD7"/><path d="M32.157 27.507c-.205-.102-.45-.102-.676.123-2.847 2.827-6.288 4.65-10.876 4.281-5.715-.45-10.139-4.24-11.49-11.06-1.434-.123-2.56-1.598-2.56-3.42 0-1.721 1.023-3.135 2.334-3.38.512-3.114 3.38-9.668 10.938-9.668 3.318 0 5.018 1.639 5.304 3.195.328 1.803-.942 2.724-1.802 2.724-.532 0-1.516-.143-1.925-1.33-.082-.267-.471-.165-.553.327-.205 1.372.758 2.724 2.785 2.724 2.212 0 4.63-1.803 4.2-5.653C27.588 4.117 25.048 0 17.84 0 7.988 0 0 7.968 0 17.82c0 9.851 7.988 17.819 17.84 17.819 9.114 0 13.825-6.493 14.44-7.353.225-.308.102-.676-.123-.779z" fill="#03BFD7"/><path d="M52.27 13.275c-1.249 0-2.662.451-3.727 1.188V8.32a.433.433 0 00-.43-.43h-1.475a.433.433 0 00-.43.43v16.529c0 .143.062.266.164.328.491.348 2.294 1.515 5.038 1.515 4.2 0 7.005-2.765 7.005-6.902.02-3.953-2.396-6.514-6.144-6.514zm3.77 6.657c0 2.704-1.823 4.527-4.527 4.527-1.209 0-2.09-.246-2.97-.82v-6.574c.655-.758 1.987-1.537 3.44-1.537 2.5-.02 4.056 1.68 4.056 4.404zm17.204-5.264c-.512-.327-2.376-1.393-5.038-1.393-4.056 0-7.108 2.888-7.108 6.719 0 4.014 2.581 6.718 6.452 6.718 1.23 0 2.54-.45 3.585-1.23v.554c0 .225.184.43.43.43h1.475c.225 0 .43-.184.43-.43v-11.02a.503.503 0 00-.226-.348zm-2.11 1.536v6.698c-.675.758-2.007 1.557-3.379 1.557-2.622 0-4.26-1.7-4.26-4.424 0-2.581 2.007-4.527 4.69-4.527a6.53 6.53 0 012.95.696zm33.059-2.273v11.982c0 3.871-2.11 6.104-5.797 6.104-2.499 0-4.096-.984-4.67-1.414a.395.395 0 01-.102-.553l.717-1.208a.523.523 0 01.266-.205c.123-.02.225 0 .328.061a5.839 5.839 0 003.38 1.066c2.949 0 3.563-2.028 3.563-3.728v-.84c-.676.553-2.13 1.495-4.096 1.495-2.315 0-5.06-1.003-5.06-5.755V13.93c0-.225.185-.43.43-.43h1.475c.226 0 .43.184.43.43v6.718c0 2.642 1.004 3.81 3.237 3.81 1.475 0 2.847-.881 3.584-1.782V13.93c0-.225.185-.43.43-.43h1.475c.225.02.41.205.41.43zm-20.871-.656c-1.25 0-2.663.451-3.728 1.188V8.32a.433.433 0 00-.43-.43h-1.475a.433.433 0 00-.43.43v16.529c0 .143.061.266.164.328.491.348 2.294 1.515 5.038 1.515 4.199 0 7.005-2.765 7.005-6.902.041-3.953-2.396-6.514-6.144-6.514zm3.789 6.657c0 2.704-1.823 4.527-4.527 4.527-1.208 0-2.09-.246-2.97-.82v-6.574c.656-.758 1.987-1.537 3.441-1.537 2.499-.02 4.056 1.68 4.056 4.404z" fill="#70BF54"/><path d="M122.993 8.319v17.737c0 .226-.184.43-.43.43h-1.474a.432.432 0 01-.43-.43V8.32c0-.226.184-.43.43-.43h1.474a.42.42 0 01.43.43zm-9.565 10.568c-1.659-.532-2.642-.942-2.642-2.007 0-.84.819-1.454 1.966-1.454 1.475 0 2.438.655 2.888 1.065a.443.443 0 00.349.102.42.42 0 00.286-.204l.615-1.106a.408.408 0 00-.082-.512c-.492-.451-1.864-1.496-4.097-1.496-2.601 0-4.342 1.455-4.342 3.646 0 2.745 2.274 3.482 4.117 4.076 1.577.512 2.54.86 2.54 1.844 0 1.249-1.208 1.7-2.233 1.7-1.741 0-2.744-.82-3.174-1.311a.478.478 0 00-.308-.144.437.437 0 00-.307.144l-.819.962c-.123.164-.143.39 0 .533.471.594 1.864 1.946 4.486 1.946 2.908 0 4.792-1.537 4.792-3.912-.041-2.56-2.253-3.277-4.035-3.872zM170 19.994c0 4.076-2.581 6.718-6.575 6.718-1.167 0-2.437-.39-3.461-1.065v5.735c0 .225-.185.43-.431.43h-1.474a.432.432 0 01-.43-.43V15.037c0-.144.082-.287.204-.348.533-.328 2.438-1.393 5.039-1.393 4.076-.02 7.128 2.867 7.128 6.698zm-2.397.04c0-2.58-2.007-4.526-4.69-4.526-1.065 0-2.069.225-2.949.696v6.8c.634.717 1.986 1.475 3.297 1.475 2.642-.02 4.342-1.74 4.342-4.444zm-13.395-.88c0 .512-.041.942-.082 1.229-.02.204-.205.348-.409.348h-9.443c.287 2.335 1.926 3.707 4.404 3.707 1.925 0 3.113-.86 3.625-1.372a.367.367 0 01.369-.102c.143.02.246.122.307.245l.492 1.147c.061.164.041.328-.082.45-.43.431-2.028 1.865-4.793 1.865-4.096 0-6.841-2.704-6.841-6.718 0-4.015 2.642-6.718 6.554-6.718 3.462.04 5.899 2.457 5.899 5.919zm-2.376-.492c-.225-2.007-1.556-3.154-3.666-3.154-2.089 0-3.544 1.168-3.953 3.154h7.619zm-12.944.492c0 .512-.041.942-.082 1.229-.021.204-.205.348-.41.348h-9.442c.286 2.335 1.925 3.707 4.403 3.707 1.926 0 3.114-.86 3.626-1.372a.354.354 0 01.368-.102c.144.02.246.122.308.245l.491 1.147c.062.164.041.328-.082.45-.43.431-2.027 1.865-4.793 1.865-4.096 0-6.841-2.704-6.841-6.718 0-4.015 2.643-6.718 6.555-6.718 3.461.04 5.899 2.457 5.899 5.919zm-2.376-.492c-.226-2.007-1.557-3.154-3.667-3.154-2.089 0-3.543 1.168-3.953 3.154h7.62z" fill="#03BFD7"/></svg>