<svg width="50" height="50" fill="none" xmlns="http://www.w3.org/2000/svg"><path fill-rule="evenodd" clip-rule="evenodd" d="M49.998 36.633V13.367a13.349 13.349 0 00-3.918-9.452A13.385 13.385 0 0036.615 0H13.381c-3.55 0-6.953 1.41-9.463 3.916a13.357 13.357 0 00-3.92 9.45v23.267c0 3.545 1.41 6.944 3.92 9.45A13.396 13.396 0 0013.38 50h23.266a13.393 13.393 0 009.444-3.926 13.354 13.354 0 003.907-9.44z" fill="#E459C1"/><path fill-rule="evenodd" clip-rule="evenodd" d="M17.769 30.909h-2.25l-3.344-11.815h2.044l2.485 9.238 2.687-9.238h1.79l2.669 9.238 2.484-9.238h2.055l-3.347 11.814h-2.25l-2.499-8.623-2.517 8.623h-.007zm18.398-6.127a2.998 2.998 0 011.655 2.746 3.156 3.156 0 01-1.03 2.414 3.564 3.564 0 01-2.517.962h-5.069v-11.81h4.697c.91-.02 1.79.32 2.45.946a3.048 3.048 0 011.014 2.327 2.841 2.841 0 01-1.2 2.415zm-2.264-3.865h-2.765v3.096h2.75a1.556 1.556 0 001.555-1.553 1.552 1.552 0 00-1.555-1.553l.015.01zm-2.75 8.169h3.127a1.659 1.659 0 001.593-1.654 1.654 1.654 0 00-1.593-1.654h-3.142l.015 3.308z" fill="#fff"/></svg>