<svg width="50" height="50" fill="none" xmlns="http://www.w3.org/2000/svg"><g clip-path="url(#clip0_6830_525)"><mask id="a" style="mask-type:alpha" maskUnits="userSpaceOnUse" x="-1" y="0" width="51" height="50"><path fill-rule="evenodd" clip-rule="evenodd" d="M49.998 36.633V13.367a13.349 13.349 0 00-3.918-9.452A13.385 13.385 0 0036.615 0H13.381c-3.55 0-6.953 1.41-9.463 3.916a13.357 13.357 0 00-3.92 9.45v23.267c0 3.545 1.41 6.944 3.92 9.45A13.396 13.396 0 0013.38 50h23.266a13.393 13.393 0 009.444-3.926 13.354 13.354 0 003.907-9.44z" fill="#181818"/></mask><g mask="url(#a)"><mask id="b" style="mask-type:luminance" maskUnits="userSpaceOnUse" x="-1" y="0" width="51" height="50"><path d="M-.002 0h50v50h-50V0z" fill="#fff"/></mask><g mask="url(#b)"><path d="M49.998 0h-50v50h50V0z" fill="#F50"/><path fill-rule="evenodd" clip-rule="evenodd" d="M49.998 31.66l-.04-.06-7.16 1.63 3.15-13.21-8.06-5.39-9.68 12.19 4-16.04-11.08-7.4-21.13 32.97V46.9h6.02l15.4-23.97-4.15 16.66 9.46 1.66 8.88-11.16-2.97 12.56 17.36-3.3v-7.69z" fill="#FD0"/><path fill-rule="evenodd" clip-rule="evenodd" d="M-.002 46.9h6.02l15.4-23.97-4.15 16.66 9.46 1.66 8.88-11.16-2.97 12.56 8.29-1.58 5.02-21.05-8.05-5.39-9.7 12.19 4-16.04-11.07-7.4-21.13 32.97V46.9z" fill="#FD0"/></g></g></g><defs><clipPath id="clip0_6830_525"><path fill="#fff" transform="translate(-.002)" d="M0 0h50v50H0z"/></clipPath></defs></svg>