<svg width="50" height="50" fill="none" xmlns="http://www.w3.org/2000/svg"><path fill-rule="evenodd" clip-rule="evenodd" d="M49.998 36.633V13.367a13.349 13.349 0 00-3.918-9.452A13.385 13.385 0 0036.615 0H13.381c-3.55 0-6.953 1.41-9.463 3.916a13.357 13.357 0 00-3.92 9.45v23.267c0 3.545 1.41 6.944 3.92 9.45A13.396 13.396 0 0013.38 50h23.266a13.393 13.393 0 009.444-3.926 13.354 13.354 0 003.907-9.44z" fill="#313131"/><path fill-rule="evenodd" clip-rule="evenodd" d="M22.705 35.83c.076.364.113.545 0 .673-.114.127-.303.11-.682.077-2.12-.19-3.307-.578-4.234-.962a6.297 6.297 0 01-3.408-3.408c-.385-.928-.774-2.114-.962-4.235-.034-.378-.051-.568.076-.681.128-.114.31-.076.673-.001a11.022 11.022 0 018.537 8.538zm4.1.828c-.295.014-.443.02-.544-.064-.101-.083-.123-.237-.166-.543-.889-6.286-5.862-11.259-12.148-12.148-.306-.043-.46-.065-.543-.166-.084-.101-.077-.248-.063-.543.057-1.234.174-2.203.324-2.994.049-.26.074-.39.177-.469.102-.079.236-.069.502-.049 8.525.641 15.331 7.447 15.972 15.972.02.267.03.4-.049.503-.079.103-.209.127-.469.177-.79.15-1.76.266-2.994.324zm7.642-2.61c-.336.367-.504.55-.708.49-.204-.061-.247-.332-.335-.875-1.41-8.75-8.319-15.659-17.068-17.069-.543-.087-.814-.131-.875-.335-.061-.204.122-.372.49-.707a6.295 6.295 0 011.838-1.17c1.292-.535 3.085-1.08 7.21-1.08 4.123 0 5.917.545 7.21 1.08a6.297 6.297 0 013.407 3.408c.535 1.292 1.08 3.086 1.08 7.21 0 4.124-.544 5.918-1.08 7.21a6.295 6.295 0 01-1.17 1.838zM9.997 25c0-4.473.6-6.71 1.331-8.474a9.6 9.6 0 015.196-5.195c1.764-.731 4-1.331 8.473-1.331 4.473 0 6.71.6 8.474 1.33a9.6 9.6 0 015.195 5.196c.731 1.764 1.331 4 1.331 8.474 0 4.473-.6 6.71-1.33 8.474a9.6 9.6 0 01-5.196 5.195c-1.764.731-4 1.331-8.474 1.331-4.473 0-6.71-.6-8.473-1.33a9.6 9.6 0 01-5.196-5.196C10.6 31.71 10 29.473 10 25z" fill="#fff"/></svg>