<svg width="50" height="50" fill="none" xmlns="http://www.w3.org/2000/svg"><path fill-rule="evenodd" clip-rule="evenodd" d="M49.998 36.633V13.367a13.349 13.349 0 00-3.918-9.452A13.385 13.385 0 0036.615 0H13.381c-3.55 0-6.953 1.41-9.463 3.916a13.357 13.357 0 00-3.92 9.45v23.267c0 3.545 1.41 6.944 3.92 9.45A13.396 13.396 0 0013.38 50h23.266a13.393 13.393 0 009.444-3.926 13.354 13.354 0 003.907-9.44z" fill="#313131"/><path fill-rule="evenodd" clip-rule="evenodd" d="M29.998 33.5h4V20h-4v13.5z" fill="#fff"/><path fill-rule="evenodd" clip-rule="evenodd" d="M33.998 16h-4.926L14.998 34h4.926l14.074-18z" fill="#fff"/></svg>