<svg width="50" height="50" fill="none" xmlns="http://www.w3.org/2000/svg"><path fill-rule="evenodd" clip-rule="evenodd" d="M49.998 36.633V13.367a13.349 13.349 0 00-3.918-9.452A13.385 13.385 0 0036.615 0H13.381c-3.55 0-6.953 1.41-9.463 3.916a13.357 13.357 0 00-3.92 9.45v23.267c0 3.545 1.41 6.944 3.92 9.45A13.396 13.396 0 0013.38 50h23.266a13.393 13.393 0 009.444-3.926 13.354 13.354 0 003.907-9.44z" fill="#03BFD7"/><g clip-path="url(#clip0_6830_484)"><path fill-rule="evenodd" clip-rule="evenodd" d="M36.814 16c.82 0 1.646.007 2.47.005.906 5.995 1.81 11.989 2.714 17.98-.82.01-1.634 0-2.451.013A9892.822 9892.822 0 0136.814 16zm-4.29 0h4.151l.023.02c.009 5.97.01 11.94.004 17.91h-4.178V15.999 16zm-6.01 17.935L28.046 16c1.05.004 2.1 0 3.15 0 .003 5.973-.023 11.948-.009 17.921-1.557.028-3.116.005-4.675.012l.002.002zM8.998 16h15.354L22.82 33.934c-4.607.004-9.213.004-13.82 0V16z" fill="#fff"/></g><defs><clipPath id="clip0_6830_484"><path fill="#fff" transform="translate(8.998 16)" d="M0 0h33v18H0z"/></clipPath></defs></svg>