<svg width="50" height="50" fill="none" xmlns="http://www.w3.org/2000/svg"><path fill-rule="evenodd" clip-rule="evenodd" d="M49.998 36.633V13.367a13.349 13.349 0 00-3.918-9.452A13.385 13.385 0 0036.615 0H13.381c-3.55 0-6.953 1.41-9.463 3.916a13.357 13.357 0 00-3.92 9.45v23.267c0 3.545 1.41 6.944 3.92 9.45A13.396 13.396 0 0013.38 50h23.266a13.393 13.393 0 009.444-3.926 13.354 13.354 0 003.907-9.44z" fill="#F50"/><path d="M10.112 12.97l.094.077a3.659 3.659 0 01-.08 5.803.15.15 0 00.09.267h28.358a.185.185 0 00.14-.062 4.67 4.67 0 00.087-6.189l-.084-.099a.196.196 0 00-.147-.067H10.215a.152.152 0 00-.103.27zm0 9.092l.094.075a3.664 3.664 0 01-.07 5.796.147.147 0 00.089.265h28.35a.191.191 0 00.14-.06 4.67 4.67 0 00.086-6.189l-.084-.101a.205.205 0 00-.147-.067H10.215a.152.152 0 00-.103.281zm0 9.091l.094.074a3.662 3.662 0 01-.08 5.806.15.15 0 00.09.267h28.358a.193.193 0 00.14-.062 4.67 4.67 0 00.087-6.189l-.084-.098a.196.196 0 00-.147-.068H10.215a.152.152 0 00-.103.27z" fill="#0A1E78"/><path d="M28.704 12.7l.09.07a4.008 4.008 0 01-.09 6.347h9.873a.186.186 0 00.14-.063 4.67 4.67 0 00.086-6.188l-.084-.099a.194.194 0 00-.147-.067h-9.868zm-5.642 9.09l.09.07a4.006 4.006 0 01-.09 6.347h15.513a.191.191 0 00.14-.06 4.67 4.67 0 00.086-6.188l-.084-.101a.205.205 0 00-.147-.068H23.062z" fill="#fff"/><path d="M16.638 30.883l.089.07a4.006 4.006 0 01-.09 6.347h21.938a.193.193 0 00.14-.062 4.67 4.67 0 00.086-6.189l-.084-.099a.196.196 0 00-.147-.067H16.638z" fill="#0A1E78"/></svg>