<svg width="50" height="50" fill="none" xmlns="http://www.w3.org/2000/svg"><path fill-rule="evenodd" clip-rule="evenodd" d="M49.998 36.633V13.367a13.349 13.349 0 00-3.918-9.452A13.385 13.385 0 0036.615 0H13.381c-3.55 0-6.953 1.41-9.463 3.916a13.357 13.357 0 00-3.92 9.45v23.267c0 3.545 1.41 6.944 3.92 9.45A13.396 13.396 0 0013.38 50h23.266a13.393 13.393 0 009.444-3.926 13.354 13.354 0 003.907-9.44z" fill="#005BFF"/><path d="M22.364 27.208h-2.76l3.524-4.673a.238.238 0 00-.047-.33.232.232 0 00-.141-.047h-5.098a.819.819 0 00-.815.817c0 .449.367.817.815.817h2.29l-3.536 4.678a.234.234 0 00.043.329.205.205 0 00.145.047h5.576a.817.817 0 000-1.633v-.005h.004zm17.815-5.05a.819.819 0 00-.815.817v2.74l-4.402-3.501a.232.232 0 00-.38.184v5.631a.816.816 0 101.63 0v-2.74l4.402 3.506a.237.237 0 00.384-.184v-5.636a.82.82 0 00-.819-.817zm-11.65 5.204c-1.865 0-3.256-.983-3.256-1.864 0-.881 1.396-1.864 3.256-1.864 1.864 0 3.255.983 3.255 1.864 0 .88-1.387 1.864-3.255 1.864zm0-5.362c-2.697 0-4.885 1.565-4.885 3.498 0 1.933 2.188 3.498 4.885 3.498 2.696 0 4.884-1.565 4.884-3.498 0-1.933-2.188-3.498-4.884-3.498zm-16.037 5.366a1.865 1.865 0 01-1.864-1.864c0-1.03.832-1.868 1.86-1.868s1.864.833 1.864 1.864v.004c0 1.026-.832 1.86-1.86 1.864zm0-5.366a3.499 3.499 0 00-3.494 3.498A3.499 3.499 0 0012.488 29a3.499 3.499 0 003.494-3.498v-.004A3.498 3.498 0 0012.492 22z" fill="#fff"/></svg>